# xmcd
#
# Track frame offsets:
# 150
# 13124
# 26812
# 40058
# 54541
# 67385
# 80881
# 92851
# 105312
# 117674
# 129963
# 142224
# 153742
# 168288
# 181014
# 193600
# 205955
# 220781
# 234034
# 245209
# 258343
#
# Disc length: 3606 seconds
#
# Revision: 0
# Processed by: cddbd v1.5.1PL0 Copyright (c) Steve Scherf et al.
# Submitted via: plextools 2.18
#
DISCID=350e1415
DTITLE=Sister Rosetta Tharpe - Complete/Integrale, Vol.2 (1943-47), CD2
DYEAR=2000
DGENRE=Gospel
TTITLE0=Sister Rosetta Tharpe - Jesus Is Here To Stay
TTITLE1=Sister Rosetta Tharpe - Jonah
TTITLE2=Sister Rosetta Tharpe - God's Mighty Hand
TTITLE3=Sister Rosetta Tharpe - The Lord Followed Me
TTITLE4=Sister Rosetta Tharpe - This Train
TTITLE5=Sister Rosetta Tharpe - Oh, When I Come To The End Of My Journey
TTITLE6=Sister Rosetta Tharpe - Didn't It Rain
TTITLE7=Sister Rosetta Tharpe - Stretch Out
TTITLE8=Sister Rosetta Tharpe - This Train
TTITLE9=Sister Rosetta Tharpe - When I Come To The End Of My Journey
TTITLE10=Sister Rosetta Tharpe - Beams Of Heaven
TTITLE11=Sister Rosetta Tharpe - Up Above My Head I Hear Music In The Air
TTITLE12=Sister Rosetta Tharpe - My Journey To The Sky
TTITLE13=Sister Rosetta Tharpe - Teach Me To Be Right
TTITLE14=Sister Rosetta Tharpe - I Heard My Mother Call My Name
TTITLE15=Sister Rosetta Tharpe - Heaven Is Not My Home
TTITLE16=Sister Rosetta Tharpe - The Natural Facts
TTITLE17=Sister Rosetta Tharpe - Cain't No Grave Hold My Body Down
TTITLE18=Sister Rosetta Tharpe - Lay Down Your Soul
TTITLE19=Sister Rosetta Tharpe - Precious Memories
TTITLE20=Sister Rosetta Tharpe - Family Prayer
EXTD=Fremeaux and Associes FA 1302/2
EXTT0=
EXTT1=
EXTT2=
EXTT3=
EXTT4=
EXTT5=
EXTT6=
EXTT7=
EXTT8=
EXTT9=
EXTT10=
EXTT11=
EXTT12=
EXTT13=
EXTT14=
EXTT15=
EXTT16=
EXTT17=
EXTT18=
EXTT19=
EXTT20=
PLAYORDER=
